<svg width="24" height="24" viewBox="0 0 24 24" fill="none" xmlns="http://www.w3.org/2000/svg">
<path d="M5.49618 12.5416C5.49618 7.31833 4.33806 3.12621 4.05965 2.1939C4.03286 2.10418 4.10671 2.01779 4.1988 2.03474C5.35176 2.24697 11.2355 3.47756 14.3319 6.98005C14.3827 7.03751 14.369 7.12646 14.304 7.16713L12.2668 8.4415C12.167 8.50399 12.2005 8.65725 12.3174 8.67228L15.7424 9.11285C15.7818 9.11791 15.8162 9.14077 15.8355 9.17546C18.2558 13.5278 19.7939 20.3183 19.9808 21.1691C19.9925 21.2223 19.9686 21.2755 19.9203 21.3005C19.4362 21.5511 16.8321 22.7654 14.4275 21.2576C10.006 18.4853 5.43626 20.5063 4.27897 21.1049C4.17748 21.1574 4.05574 21.0612 4.08601 20.951C4.40417 19.7929 5.49618 15.5955 5.49618 12.5416Z" fill="black" stroke="black" stroke-width="0.376358"/>
</svg>
